# xmcd CD database file
#
# Track frame offsets:
#	150
#	14773
#	31738
#	47043
#	69565
#	81665
#	94038
#	108700
#	125303
#	144638
#	155283
#	169885
#	183950
#	199775
#	222978
#	241425
#	264533
#	280128
#
# Disc length: 3947 seconds
#
# Revision: 0
# Processed by: cddbd v1.5.1PL0 Copyright (c) Steve Scherf et al.
# Submitted via: CDex 1.50beta9
#
DISCID=0a0f6912
DTITLE=Various Artist - SUPER HERO CHRONICLE スーパー戦隊 主題歌・挿入歌 大全集?(DISK1)
DYEAR=2004
DGENRE=アニメ
TTITLE0=高山成孝／激走戦隊カーレンジャー　〜フルアクセルヴァージョン〜
TTITLE1=速水けんたろう／くる！クルマジックパワー！
TTITLE2=朝川ひろこ／青春サーキット
TTITLE3=渕上祥人／心のままに…
TTITLE4=高山成孝／激走合体！！ＲＶロボ
TTITLE5=高山成孝／激走戦隊カーレンジャー
TTITLE6=高山成孝／俺たちはカーレンジャー
TTITLE7=高尾直樹／白バイ野郎シグナルマン
TTITLE8=前田達也／CATCH THE WIND
TTITLE9=高山成孝／天国サンバ
TTITLE10=MICKEY ラップ：TOULOUSE／CARRANGER THE UNSTOPPABLE 〜オープニングテーマ英語ヴァージョン〜
TTITLE11=ダップ（まるたまり） コーラス：森の木児童合唱団／ダップのうたダップ！
TTITLE12=坂井紀雄／ペガサスサンダー GO！GO！GO！
TTITLE13=朝川ひろこ コーラス：森の木児童合唱団／カーレンジャー音頭
TTITLE14=高尾直樹／カーレンジャー輝く
TTITLE15=山野さと子 コーラス：森の木児童合唱団／うたおう！交通安全 〜カーレンジャーになれるんジャー〜
TTITLE16=渕上祥人／だから戦うカーレンジャー
TTITLE17=七瀬理香／夢見るゾンネット
EXTD=YEAR: 2004
EXTT0=
EXTT1=
EXTT2=
EXTT3=
EXTT4=
EXTT5=
EXTT6=
EXTT7=
EXTT8=
EXTT9=
EXTT10=
EXTT11=
EXTT12=
EXTT13=
EXTT14=
EXTT15=
EXTT16=
EXTT17=
PLAYORDER=
